<svg xmlns="http://www.w3.org/2000/svg" width="932.0513916015625" height="837.1979370117188" viewBox="-454.3152160644531 -376.9151916503906 932.0513916015625 837.1979370117188"><title>Neo4j Graph Visualization</title><desc>Created using Neo4j (http://www.neo4j.com/)</desc><g class="layer relationships"><g class="relationship" transform="translate(139.80462590209498 -28.076733582379177) rotate(532.6578140096157)"><path class="outline" fill="#A5ABB6" stroke="none" d="M 24.018736134675446,-6.953439040707552 L 24.277555179777966,-5.987513214418485 A 211.31335950016944 211.31335950016944 0 0 1 62.39460943758456,-12.536793757195284 L 62.316172051019706,-13.533712799238742 A 212.31335950016944 212.31335950016944 0 0 0 24.018736134675446,-6.953439040707552 Z M 91.03210609156945,-13.844893929262213 L 90.97529087741171,-12.846509218121156 A 211.31335950016944 211.31335950016944 0 0 1 129.2253202891898,-7.124782999690609 L 128.51184183276314,-4.210859786526782 L 136.14338752930985,-5.945653803555661 L 130.1766248977587,-11.010013950575711 L 129.46314644133204,-8.096090737411885 A 212.31335950016944 212.31335950016944 0 0 0 91.03210609156945,-13.844893929262213"/><text text-anchor="middle" pointer-events="none" font-size="8px" fill="#000000" x="76.674289673093" y="-10.67540576284486" transform="rotate(180 76.674289673093 -13.67540576284486)" font-family="sans-serif">SAME</text></g><g class="relationship" transform="translate(-19.30606035684508 -7.5751001266399385) rotate(280.4253091701578)"><path class="outline" fill="#A5ABB6" stroke="none" d="M 24.018736134675446,6.953439040707552 L 24.277555179777966,5.987513214418485 A 213.76669922345448 213.76669922345448 0 0 0 63.019447548473934,12.62709556949494 L 62.941862963693964,13.62408134281597 A 214.76669922345448 214.76669922345448 0 0 1 24.018736134675446,6.953439040707552 Z M 91.65754695155215,13.932949174650474 L 91.60142512797512,12.934525246192038 A 213.76669922345448 213.76669922345448 0 0 0 130.47716927094862,7.129803419306912 L 129.76322194461235,4.215995049626899 L 137.3950466879247,5.949561052802282 L 131.42909903939696,11.014881245546928 L 130.7151517130607,8.101072875866915 A 214.76669922345448 214.76669922345448 0 0 1 91.65754695155215,13.932949174650474"/><text text-anchor="middle" pointer-events="none" font-size="8px" fill="#000000" x="77.29991439872431" y="16.759043355680234" font-family="sans-serif">SAME</text></g><g class="relationship" transform="translate(-19.30606035684508 -7.5751001266399385) rotate(290.8648072935375)"><path class="outline" fill="#A5ABB6" stroke="none" d="M 6.953439040707552 24.018736134675446 L 17.306200844808384 62.65576918623819 A 17.916697508022974 17.916697508022974 0 1 1 -17.306200844808384 62.65576918623819 L -8.765172356425198 30.780216918698923 L -4.901469051268926 31.815493099109005 L -6.4704761275630185 24.148145657226706 L -11.662949835292403 30.00375978339136 L -7.79924653013613 31.039035963801442 L -16.340275018519314 62.91458823134071 A 16.916697508022974 16.916697508022974 0 1 0 16.340275018519314 62.91458823134071 L 5.987513214418485 24.277555179777966 Z"/><text text-anchor="middle" pointer-events="none" font-size="8px" fill="#000000" x="0" y="94.20964923467838" font-family="sans-serif">SAME</text></g><g class="relationship" transform="translate(139.80462590209498 -28.076733582379177) rotate(226.8464668799823)"><path class="outline" fill="#A5ABB6" stroke="none" d="M 24.018736134675446,6.953439040707552 L 24.277555179777966,5.987513214418485 A 268.9169595439602 268.9169595439602 0 0 0 77.1021168608786,14.626836107466374 L 77.03973229045809,15.624888293162826 A 269.9169595439602 269.9169595439602 0 0 1 24.018736134675446,6.953439040707552 Z M 105.75004597510456,15.889436556733585 L 105.706063336391,14.890404261213689 A 268.9169595439602 268.9169595439602 0 0 0 158.68085443232184,7.22595873702723 L 157.95792715378875,4.314365333072492 L 165.59506025463838,6.024393987775806 L 159.64475747036593,11.108083275633547 L 158.92183019183284,8.196489871678809 A 269.9169595439602 269.9169595439602 0 0 1 105.75004597510456,15.889436556733585"/><text text-anchor="middle" pointer-events="none" font-size="8px" fill="#000000" x="91.39597608835693" y="18.63919969438325" transform="rotate(180 91.39597608835693 15.639199694383251)" font-family="sans-serif">SAME</text></g><g class="relationship" transform="translate(-355.9337504871892 -255.3582322834466) rotate(349.9981472762714)"><path class="outline" fill="#A5ABB6" stroke="none" d="M 24.018736134675446,-6.953439040707552 L 24.277555179777966,-5.987513214418485 A 165.884808901986 165.884808901986 0 0 1 34.285496753548095,-8.33933108958422 L 34.08700837790238,-9.319434331459036 A 166.884808901986 166.884808901986 0 0 0 24.018736134675446,-6.953439040707552 Z M 96.21339224956392,-10.100586307135586 L 96.03960957022016,-9.115802279868632 A 165.884808901986 165.884808901986 0 0 1 106.10351948879322,-7.016359731763952 L 105.40016726390742,-4.099975729656514 L 113.02564086452487,-5.861268540714995 L 107.04132245530762,-10.90487173457387 L 106.33797023042182,-7.988487732466432 A 166.884808901986 166.884808901986 0 0 0 96.21339224956392,-10.100586307135586"/><text text-anchor="middle" pointer-events="none" font-size="8px" fill="#000000" x="65.1198132052759" y="-9.126750241294815" font-family="sans-serif">SUBTOPIC_OF</text></g><g class="relationship" transform="translate(-220.6920144615715 -279.20950845045036) rotate(529.9981472762714)"><path class="outline" fill="#A5ABB6" stroke="none" d="M 24.018736134675446,-6.953439040707552 L 24.277555179777966,-5.987513214418485 A 165.884808901986 165.884808901986 0 0 1 34.285496753548095,-8.33933108958422 L 34.08700837790238,-9.319434331459036 A 166.884808901986 166.884808901986 0 0 0 24.018736134675446,-6.953439040707552 Z M 96.21339224956392,-10.100586307135586 L 96.03960957022016,-9.115802279868632 A 165.884808901986 165.884808901986 0 0 1 106.10351948879322,-7.016359731763952 L 105.40016726390742,-4.099975729656514 L 113.02564086452487,-5.861268540714995 L 107.04132245530762,-10.90487173457387 L 106.33797023042182,-7.988487732466432 A 166.884808901986 166.884808901986 0 0 0 96.21339224956392,-10.100586307135586"/><text text-anchor="middle" pointer-events="none" font-size="8px" fill="#000000" x="65.1198132052759" y="-9.126750241294815" transform="rotate(180 65.1198132052759 -12.126750241294815)" font-family="sans-serif">SUBTOPIC_OF</text></g><g class="relationship" transform="translate(-355.9337504871892 -255.3582322834466) rotate(463.1769961531359)"><path class="outline" fill="#A5ABB6" stroke="none" d="M 6.953439040707552 24.018736134675446 L 17.306200844808384 62.65576918623819 A 17.916697508022974 17.916697508022974 0 1 1 -17.306200844808384 62.65576918623819 L -8.765172356425198 30.780216918698923 L -4.901469051268926 31.815493099109005 L -6.4704761275630185 24.148145657226706 L -11.662949835292403 30.00375978339136 L -7.79924653013613 31.039035963801442 L -16.340275018519314 62.91458823134071 A 16.916697508022974 16.916697508022974 0 1 0 16.340275018519314 62.91458823134071 L 5.987513214418485 24.277555179777966 Z"/><text text-anchor="middle" pointer-events="none" font-size="8px" fill="#000000" x="0" y="94.20964923467838" transform="rotate(180 0 91.20964923467838)" font-family="sans-serif">SUBTOPI…</text></g><g class="relationship" transform="translate(-220.6920144615715 -279.20950845045036) rotate(188.01262138863996)"><path class="outline" fill="#A5ABB6" stroke="none" d="M 6.953439040707552 24.018736134675446 L 17.306200844808384 62.65576918623819 A 17.916697508022974 17.916697508022974 0 1 1 -17.306200844808384 62.65576918623819 L -8.765172356425198 30.780216918698923 L -4.901469051268926 31.815493099109005 L -6.4704761275630185 24.148145657226706 L -11.662949835292403 30.00375978339136 L -7.79924653013613 31.039035963801442 L -16.340275018519314 62.91458823134071 A 16.916697508022974 16.916697508022974 0 1 0 16.340275018519314 62.91458823134071 L 5.987513214418485 24.277555179777966 Z"/><text text-anchor="middle" pointer-events="none" font-size="8px" fill="#000000" x="0" y="94.20964923467838" transform="rotate(180 0 91.20964923467838)" font-family="sans-serif">SUBTOPI…</text></g><g class="relationship" transform="translate(423.1481607947156 113.87952301938867) rotate(274.41143793402216)"><path class="outline" fill="#A5ABB6" stroke="none" d="M 25 0.5 L 150.05726707221396 0.5 L 150.05726707221396 -0.5 L 25 -0.5 Z M 175.60804832221396 0.5 L 300.6653153944279 0.5 L 300.6653153944279 3.5 L 307.6653153944279 0 L 300.6653153944279 -3.5 L 300.6653153944279 -0.5 L 175.60804832221396 -0.5 Z"/><text text-anchor="middle" pointer-events="none" font-size="8px" fill="#000000" x="162.83265769721396" y="3" font-family="sans-serif">OWN</text></g><g class="relationship" transform="translate(423.1481607947156 113.87952301938867) rotate(257.3041077392296)"><path class="outline" fill="#A5ABB6" stroke="none" d="M 25 0.5 L 114.00413837367952 0.5 L 114.00413837367952 -0.5 L 25 -0.5 Z M 139.55491962367952 0.5 L 228.55905799735905 0.5 L 228.55905799735905 3.5 L 235.55905799735905 0 L 228.55905799735905 -3.5 L 228.55905799735905 -0.5 L 139.55491962367952 -0.5 Z"/><text text-anchor="middle" pointer-events="none" font-size="8px" fill="#000000" x="126.77952899867952" y="3" transform="rotate(180 126.77952899867952 0)" font-family="sans-serif">OWN</text></g><g class="relationship" transform="translate(-19.30606035684508 -7.5751001266399385) rotate(319.0718005774594)"><path class="outline" fill="#A5ABB6" stroke="none" d="M 6.953439040707552 24.018736134675446 L 17.306200844808384 62.65576918623819 A 17.916697508022974 17.916697508022974 0 1 1 -17.306200844808384 62.65576918623819 L -8.765172356425198 30.780216918698923 L -4.901469051268926 31.815493099109005 L -6.4704761275630185 24.148145657226706 L -11.662949835292403 30.00375978339136 L -7.79924653013613 31.039035963801442 L -16.340275018519314 62.91458823134071 A 16.916697508022974 16.916697508022974 0 1 0 16.340275018519314 62.91458823134071 L 5.987513214418485 24.277555179777966 Z"/><text text-anchor="middle" pointer-events="none" font-size="8px" fill="#000000" x="0" y="94.20964923467838" font-family="sans-serif">CITE</text></g><g class="relationship" transform="translate(9.94993542467472 -166.58286378935725) rotate(406.8464668799823)"><path class="outline" fill="#A5ABB6" stroke="none" d="M 24.018736134675446,6.953439040707552 L 24.277555179777966,5.987513214418485 A 268.9169595439602 268.9169595439602 0 0 0 79.31881930711641,14.756208790122173 L 79.2646778108776,15.754742063671472 A 269.9169595439602 269.9169595439602 0 0 1 24.018736134675446,6.953439040707552 Z M 103.52308539566621,15.97826869155989 L 103.48735329661196,14.978907286913284 A 268.9169595439602 268.9169595439602 0 0 0 158.68085443232184,7.22595873702723 L 157.95792715378875,4.314365333072492 L 165.59506025463838,6.024393987775806 L 159.64475747036593,11.108083275633547 L 158.92183019183284,8.196489871678809 A 269.9169595439602 269.9169595439602 0 0 1 103.52308539566621,15.97826869155989"/><text text-anchor="middle" pointer-events="none" font-size="8px" fill="#000000" x="91.39597608835693" y="18.63919969438325" font-family="sans-serif">CITE</text></g><g class="relationship" transform="translate(9.94993542467472 -166.58286378935725) rotate(460.4253091701578)"><path class="outline" fill="#A5ABB6" stroke="none" d="M 24.018736134675446,6.953439040707552 L 24.277555179777966,5.987513214418485 A 213.76669922345448 213.76669922345448 0 0 0 65.23303000604797,12.78779846504321 L 65.16580055359505,13.785536006044282 A 214.76669922345448 214.76669922345448 0 0 1 24.018736134675446,6.953439040707552 Z M 89.43065105739176,14.046530373027338 L 89.38489814064343,13.04757758605038 A 213.76669922345448 213.76669922345448 0 0 0 130.47716927094862,7.129803419306912 L 129.76322194461235,4.215995049626899 L 137.3950466879247,5.949561052802282 L 131.42909903939696,11.014881245546928 L 130.7151517130607,8.101072875866915 A 214.76669922345448 214.76669922345448 0 0 1 89.43065105739176,14.046530373027338"/><text text-anchor="middle" pointer-events="none" font-size="8px" fill="#000000" x="77.29991439872431" y="16.759043355680234" transform="rotate(180 77.29991439872431 13.759043355680234)" font-family="sans-serif">CITE</text></g><g class="relationship" transform="translate(-19.30606035684508 -7.5751001266399385) rotate(352.65781400961566)"><path class="outline" fill="#A5ABB6" stroke="none" d="M 24.018736134675446,-6.953439040707552 L 24.277555179777966,-5.987513214418485 A 211.31335950016944 211.31335950016944 0 0 1 64.60800319359095,-12.69925260371025 L 64.54004026903475,-13.696940451128341 A 212.31335950016944 212.31335950016944 0 0 0 24.018736134675446,-6.953439040707552 Z M 88.80522288390843,-13.95989087216148 L 88.75889633241847,-12.960964523211231 A 211.31335950016944 211.31335950016944 0 0 1 129.2253202891898,-7.124782999690609 L 128.51184183276314,-4.210859786526782 L 136.14338752930985,-5.945653803555661 L 130.1766248977587,-11.010013950575711 L 129.46314644133204,-8.096090737411885 A 212.31335950016944 212.31335950016944 0 0 0 88.80522288390843,-13.95989087216148"/><text text-anchor="middle" pointer-events="none" font-size="8px" fill="#000000" x="76.674289673093" y="-10.67540576284486" font-family="sans-serif">CITE</text></g><g class="relationship" transform="translate(-350.8648200531775 161.45277173329112) rotate(444.1627340591403)"><path class="outline" fill="#A5ABB6" stroke="none" d="M 17.324116139070416,18.03122292025696 L 18.031222920256962,17.324116139070412 A 114.82962781055299 114.82962781055299 0 0 0 76.15393950388122,48.614772290587595 L 75.95299753130588,49.59437543658986 A 115.82962781055299 115.82962781055299 0 0 1 17.324116139070416,18.03122292025696 Z M 117.0104459234075,50.58379898847008 L 116.85692376475681,49.59565378314687 A 114.82962781055299 114.82962781055299 0 0 0 176.41941274278378,21.141036368828846 L 174.40273683461376,18.919996458920288 L 181.93795185059875,16.805632568083553 L 179.10831395367714,24.102422915373587 L 177.09163804550712,21.88138300546503 A 115.82962781055299 115.82962781055299 0 0 1 117.0104459234075,50.58379898847008"/><text text-anchor="middle" pointer-events="none" font-size="8px" fill="#000000" x="96.44956527966515" y="54.42346184820521" font-family="sans-serif">COFIRST</text></g><g class="relationship" transform="translate(-330.47872563122985 360.8600276901649) rotate(343.6530150962065)"><path class="outline" fill="#A5ABB6" stroke="none" d="M 6.953439040707552 24.018736134675446 L 17.306200844808384 62.65576918623819 A 17.916697508022974 17.916697508022974 0 1 1 -17.306200844808384 62.65576918623819 L -8.765172356425198 30.780216918698923 L -4.901469051268926 31.815493099109005 L -6.4704761275630185 24.148145657226706 L -11.662949835292403 30.00375978339136 L -7.79924653013613 31.039035963801442 L -16.340275018519314 62.91458823134071 A 16.916697508022974 16.916697508022974 0 1 0 16.340275018519314 62.91458823134071 L 5.987513214418485 24.277555179777966 Z"/><text text-anchor="middle" pointer-events="none" font-size="8px" fill="#000000" x="0" y="94.20964923467838" font-family="sans-serif">COFIRST</text></g><g class="relationship" transform="translate(-330.47872563122985 360.8600276901649) rotate(264.1627340591403)"><path class="outline" fill="#A5ABB6" stroke="none" d="M 24.018736134675446,-6.953439040707552 L 24.277555179777966,-5.987513214418485 A 289.5864027964388 289.5864027964388 0 0 1 76.20116053790787,-14.937971815354842 L 76.12164412876035,-15.93480537251287 A 290.5864027964388 290.5864027964388 0 0 0 24.018736134675446,-6.953439040707552 Z M 117.26585305184881,-16.29455161108291 L 117.20377918517083,-15.296480052989182 A 289.5864027964388 289.5864027964388 0 0 1 169.2759515835298,-7.255313205480381 L 168.55028298016092,-4.344401822754234 L 176.18902291045228,-6.047238361407344 L 170.24350972135497,-11.136528382448578 L 169.51784111798608,-8.22561699972243 A 290.5864027964388 290.5864027964388 0 0 0 117.26585305184881,-16.29455161108291"/><text text-anchor="middle" pointer-events="none" font-size="8px" fill="#000000" x="96.69174488230436" y="-13.343842751886939" transform="rotate(180 96.69174488230436 -16.34384275188694)" font-family="sans-serif">COFIRST</text></g><g class="relationship" transform="translate(-350.8648200531775 161.45277173329112) rotate(432.0166157286251)"><path class="outline" fill="#A5ABB6" stroke="none" d="M 6.953439040707552 24.018736134675446 L 17.306200844808384 62.65576918623819 A 17.916697508022974 17.916697508022974 0 1 1 -17.306200844808384 62.65576918623819 L -8.765172356425198 30.780216918698923 L -4.901469051268926 31.815493099109005 L -6.4704761275630185 24.148145657226706 L -11.662949835292403 30.00375978339136 L -7.79924653013613 31.039035963801442 L -16.340275018519314 62.91458823134071 A 16.916697508022974 16.916697508022974 0 1 0 16.340275018519314 62.91458823134071 L 5.987513214418485 24.277555179777966 Z"/><text text-anchor="middle" pointer-events="none" font-size="8px" fill="#000000" x="0" y="94.20964923467838" font-family="sans-serif">COFIRST</text></g><g class="relationship" transform="translate(-19.30606035684508 -7.5751001266399385) rotate(211.371288410337)"><path class="outline" fill="#A5ABB6" stroke="none" d="M 24.018736134675446,-6.953439040707552 L 24.277555179777966,-5.987513214418485 A 517.2904824205267 517.2904824205267 0 0 1 134.37356382354983,-23.066486238892594 L 134.32757685710573,-24.06542827871135 A 518.2904824205267 518.2904824205267 0 0 0 24.018736134675446,-6.953439040707552 Z M 176.2114038891723,-24.2993858694482 L 176.17657936388989,-23.299992427184975 A 517.2904824205267 517.2904824205267 0 0 1 286.45651367922767,-7.452010654575143 L 285.71247719977174,-4.545739896844751 L 293.36181819384126,-6.200303995466319 L 287.4485623185023,-11.327038331549 L 286.70452583904637,-8.420767573818607 A 518.2904824205267 518.2904824205267 0 0 0 176.2114038891723,-24.2993858694482"/><text text-anchor="middle" pointer-events="none" font-size="8px" fill="#000000" x="155.26991895426295" y="-21.10568112726139" transform="rotate(180 155.26991895426295 -24.10568112726139)" font-family="sans-serif">TAG_JRN</text></g><g class="relationship" transform="translate(-19.30606035684508 -7.5751001266399385) rotate(216.35584503000047)"><path class="outline" fill="#A5ABB6" stroke="none" d="M 21.40063509461097,12.933012701892217 L 21.90063509461097,12.06698729810778 A 373.23301323306885 373.23301323306885 0 0 0 184.55340866063733,61.300629448041775 L 184.489202836927,62.29856612549264 A 374.23301323306885 374.23301323306885 0 0 1 21.40063509461097,12.933012701892217 Z M 226.37734176075634,62.64429924513115 L 226.32961694916017,61.64543872315721 A 373.23301323306885 373.23301323306885 0 0 0 389.772897308532,15.103303260367275 L 388.31598635073146,12.480821523340147 L 396.134839854562,12.140924648337293 L 391.715445252266,18.599945576403446 L 390.2585342944655,15.977463839376318 A 374.23301323306885 374.23301323306885 0 0 1 226.37734176075634,62.64429924513115"/><text text-anchor="middle" pointer-events="none" font-size="8px" fill="#000000" x="205.43255779528403" y="65.55800010562785" transform="rotate(180 205.43255779528403 62.558000105627855)" font-family="sans-serif">TAG_JRN</text></g><g class="relationship" transform="translate(9.94993542467472 -166.58286378935725) rotate(193.63827833314258)"><path class="outline" fill="#A5ABB6" stroke="none" d="M 21.40063509461097,-12.933012701892217 L 21.90063509461097,-12.06698729810778 A 331.6385529029394 331.6385529029394 0 0 1 163.81041610465223,-55.635127607415086 L 163.7383210625284,-56.6325253740564 A 332.6385529029394 332.6385529029394 0 0 0 21.40063509461097,-12.933012701892217 Z M 205.62731427965002,-57.01576146930557 L 205.57347986215,-56.0172115929887 A 331.6385529029394 331.6385529029394 0 0 1 348.2566367499746,-15.05276924534156 L 346.80442267113483,-12.427683671646928 L 354.62387210173534,-12.10178399033129 L 350.1929221884276,-18.552883343601067 L 348.74070810958784,-15.927797769906435 A 332.6385529029394 332.6385529029394 0 0 0 205.62731427965002,-57.01576146930557"/><text text-anchor="middle" pointer-events="none" font-size="8px" fill="#000000" x="184.68135307088326" y="-53.98422914652036" transform="rotate(180 184.68135307088326 -56.98422914652036)" font-family="sans-serif">TAG_JRN</text></g><g class="relationship" transform="translate(9.94993542467472 -166.58286378935725) rotate(181.20501530045004)"><path class="outline" fill="#A5ABB6" stroke="none" d="M 24.018736134675446,-6.953439040707552 L 24.277555179777966,-5.987513214418485 A 484.10970398997824 484.10970398997824 0 0 1 125.82307987702984,-21.900160059859786 L 125.77401809120207,-22.898955805331013 A 485.10970398997824 485.10970398997824 0 0 0 24.018736134675446,-6.953439040707552 Z M 167.65892161650402,-23.145944294494996 L 167.62164230632646,-22.14663940957115 A 484.10970398997824 484.10970398997824 0 0 1 269.34776729990494,-7.432652544728316 L 268.605538421896,-4.525919620524656 L 276.2538489360483,-6.185240650074689 L 270.3374058039169,-11.30829644366653 L 269.59517692590794,-8.401563519462869 A 485.10970398997824 485.10970398997824 0 0 0 167.65892161650402,-23.145944294494996"/><text text-anchor="middle" pointer-events="none" font-size="8px" fill="#000000" x="146.71675127490352" y="-19.97472598961815" transform="rotate(180 146.71675127490352 -22.97472598961815)" font-family="sans-serif">TAG_JRN</text></g><g class="relationship" transform="translate(-330.47872563122985 360.8600276901649) rotate(338.3981556147396)"><path class="outline" fill="#A5ABB6" stroke="none" d="M 25 0.5 L 182.16686397616968 0.5 L 182.16686397616968 -0.5 L 25 -0.5 Z M 200.16686397616968 0.5 L 357.33372795233936 0.5 L 357.33372795233936 3.5 L 364.33372795233936 0 L 357.33372795233936 -3.5 L 357.33372795233936 -0.5 L 200.16686397616968 -0.5 Z"/><text text-anchor="middle" pointer-events="none" font-size="8px" fill="#000000" x="191.16686397616968" y="3" font-family="sans-serif">DO</text></g><g class="relationship" transform="translate(-350.8648200531775 161.45277173329112) rotate(362.03266827669063)"><path class="outline" fill="#A5ABB6" stroke="none" d="M 25 0.5 L 149.8314687326801 0.5 L 149.8314687326801 -0.5 L 25 -0.5 Z M 167.8314687326801 0.5 L 292.6629374653602 0.5 L 292.6629374653602 3.5 L 299.6629374653602 0 L 292.6629374653602 -3.5 L 292.6629374653602 -0.5 L 167.8314687326801 -0.5 Z"/><text text-anchor="middle" pointer-events="none" font-size="8px" fill="#000000" x="158.8314687326801" y="3" font-family="sans-serif">DO</text></g><g class="relationship" transform="translate(-206.6224780329202 357.2929511597264) rotate(329.5899090431607)"><path class="outline" fill="#A5ABB6" stroke="none" d="M 25 0.5 L 125.55989675994985 0.5 L 125.55989675994985 -0.5 L 25 -0.5 Z M 143.55989675994985 0.5 L 244.1197935198997 0.5 L 244.1197935198997 3.5 L 251.1197935198997 0 L 244.1197935198997 -3.5 L 244.1197935198997 -0.5 L 143.55989675994985 -0.5 Z"/><text text-anchor="middle" pointer-events="none" font-size="8px" fill="#000000" x="134.55989675994985" y="3" font-family="sans-serif">DO</text></g><g class="relationship" transform="translate(-330.47872563122985 360.8600276901649) rotate(328.2873646521372)"><path class="outline" fill="#A5ABB6" stroke="none" d="M 25 0.5 L 166.22003477992953 0.5 L 166.22003477992953 -0.5 L 25 -0.5 Z M 184.22003477992953 0.5 L 325.44006955985907 0.5 L 325.44006955985907 3.5 L 332.44006955985907 0 L 325.44006955985907 -3.5 L 325.44006955985907 -0.5 L 184.22003477992953 -0.5 Z"/><text text-anchor="middle" pointer-events="none" font-size="8px" fill="#000000" x="175.22003477992953" y="3" font-family="sans-serif">DO</text></g><g class="relationship" transform="translate(-350.8648200531775 161.45277173329112) rotate(368.3425211834324)"><path class="outline" fill="#A5ABB6" stroke="none" d="M 25 0.5 L 180.7321209324205 0.5 L 180.7321209324205 -0.5 L 25 -0.5 Z M 198.7321209324205 0.5 L 354.464241864841 0.5 L 354.464241864841 3.5 L 361.464241864841 0 L 354.464241864841 -3.5 L 354.464241864841 -0.5 L 198.7321209324205 -0.5 Z"/><text text-anchor="middle" pointer-events="none" font-size="8px" fill="#000000" x="189.7321209324205" y="3" font-family="sans-serif">DO</text></g><g class="relationship" transform="translate(-206.6224780329202 357.2929511597264) rotate(314.35431559221274)"><path class="outline" fill="#A5ABB6" stroke="none" d="M 25 0.5 L 116.39286084122787 0.5 L 116.39286084122787 -0.5 L 25 -0.5 Z M 134.39286084122787 0.5 L 225.78572168245574 0.5 L 225.78572168245574 3.5 L 232.78572168245574 0 L 225.78572168245574 -3.5 L 225.78572168245574 -0.5 L 134.39286084122787 -0.5 Z"/><text text-anchor="middle" pointer-events="none" font-size="8px" fill="#000000" x="125.39286084122787" y="3" font-family="sans-serif">DO</text></g><g class="relationship" transform="translate(347.4537303146794 -234.06359294831572) rotate(508.3030500882237)"><path class="outline" fill="#A5ABB6" stroke="none" d="M 25 0.5 L 191.91110613801328 0.5 L 191.91110613801328 -0.5 L 25 -0.5 Z M 232.14548113801328 0.5 L 399.05658727602656 0.5 L 399.05658727602656 3.5 L 406.05658727602656 0 L 399.05658727602656 -3.5 L 399.05658727602656 -0.5 L 232.14548113801328 -0.5 Z"/><text text-anchor="middle" pointer-events="none" font-size="8px" fill="#000000" x="212.02829363801328" y="3" transform="rotate(180 212.02829363801328 0)" font-family="sans-serif">PUBLISH</text></g><g class="relationship" transform="translate(365.88346441689333 -140.30894495905235) rotate(184.22174140106603)"><path class="outline" fill="#A5ABB6" stroke="none" d="M 25 0.5 L 154.83378326757244 0.5 L 154.83378326757244 -0.5 L 25 -0.5 Z M 195.06815826757244 0.5 L 324.9019415351449 0.5 L 324.9019415351449 3.5 L 331.9019415351449 0 L 324.9019415351449 -3.5 L 324.9019415351449 -0.5 L 195.06815826757244 -0.5 Z"/><text text-anchor="middle" pointer-events="none" font-size="8px" fill="#000000" x="174.95097076757244" y="3" transform="rotate(180 174.95097076757244 0)" font-family="sans-serif">PUBLISH</text></g><g class="relationship" transform="translate(448.7361340946304 -217.80024375705648) rotate(515.8123610507243)"><path class="outline" fill="#A5ABB6" stroke="none" d="M 25 0.5 L 232.9262331919864 0.5 L 232.9262331919864 -0.5 L 25 -0.5 Z M 273.1606081919864 0.5 L 481.0868413839728 0.5 L 481.0868413839728 3.5 L 488.0868413839728 0 L 481.0868413839728 -3.5 L 481.0868413839728 -0.5 L 273.1606081919864 -0.5 Z"/><text text-anchor="middle" pointer-events="none" font-size="8px" fill="#000000" x="253.0434206919864" y="3" transform="rotate(180 253.0434206919864 0)" font-family="sans-serif">PUBLISH</text></g><g class="relationship" transform="translate(448.7361340946304 -217.80024375705648) rotate(533.3422697543358)"><path class="outline" fill="#A5ABB6" stroke="none" d="M 25 0.5 L 197.26544431720825 0.5 L 197.26544431720825 -0.5 L 25 -0.5 Z M 237.49981931720825 0.5 L 409.7652636344165 0.5 L 409.7652636344165 3.5 L 416.7652636344165 0 L 409.7652636344165 -3.5 L 409.7652636344165 -0.5 L 237.49981931720825 -0.5 Z"/><text text-anchor="middle" pointer-events="none" font-size="8px" fill="#000000" x="217.38263181720825" y="3" transform="rotate(180 217.38263181720825 0)" font-family="sans-serif">PUBLISH</text></g><g class="relationship" transform="translate(365.88346441689333 -140.30894495905235) rotate(513.598840769125)"><path class="outline" fill="#A5ABB6" stroke="none" d="M 25 0.5 L 102.58474443321023 0.5 L 102.58474443321023 -0.5 L 25 -0.5 Z M 142.81911943321023 0.5 L 220.40386386642047 0.5 L 220.40386386642047 3.5 L 227.40386386642047 0 L 220.40386386642047 -3.5 L 220.40386386642047 -0.5 L 142.81911943321023 -0.5 Z"/><text text-anchor="middle" pointer-events="none" font-size="8px" fill="#000000" x="122.70193193321023" y="3" transform="rotate(180 122.70193193321023 0)" font-family="sans-serif">PUBLISH</text></g><g class="relationship" transform="translate(448.7361340946304 -217.80024375705648) rotate(508.44474650573284)"><path class="outline" fill="#A5ABB6" stroke="none" d="M 25 0.5 L 157.6517336276408 0.5 L 157.6517336276408 -0.5 L 25 -0.5 Z M 197.8861086276408 0.5 L 330.5378422552816 0.5 L 330.5378422552816 3.5 L 337.5378422552816 0 L 330.5378422552816 -3.5 L 330.5378422552816 -0.5 L 197.8861086276408 -0.5 Z"/><text text-anchor="middle" pointer-events="none" font-size="8px" fill="#000000" x="177.7689211276408" y="3" transform="rotate(180 177.7689211276408 0)" font-family="sans-serif">PUBLISH</text></g><g class="relationship" transform="translate(365.88346441689333 -140.30894495905235) rotate(520.9863765744481)"><path class="outline" fill="#A5ABB6" stroke="none" d="M 25 0.5 L 180.09170010644036 0.5 L 180.09170010644036 -0.5 L 25 -0.5 Z M 220.32607510644036 0.5 L 375.4177752128807 0.5 L 375.4177752128807 3.5 L 382.4177752128807 0 L 375.4177752128807 -3.5 L 375.4177752128807 -0.5 L 220.32607510644036 -0.5 Z"/><text text-anchor="middle" pointer-events="none" font-size="8px" fill="#000000" x="200.20888760644036" y="3" transform="rotate(180 200.20888760644036 0)" font-family="sans-serif">PUBLISH</text></g><g class="relationship" transform="translate(347.4537303146794 -234.06359294831572) rotate(528.6933371108462)"><path class="outline" fill="#A5ABB6" stroke="none" d="M 25 0.5 L 148.47469230042742 0.5 L 148.47469230042742 -0.5 L 25 -0.5 Z M 188.70906730042742 0.5 L 312.18375960085484 0.5 L 312.18375960085484 3.5 L 319.18375960085484 0 L 312.18375960085484 -3.5 L 312.18375960085484 -0.5 L 188.70906730042742 -0.5 Z"/><text text-anchor="middle" pointer-events="none" font-size="8px" fill="#000000" x="168.59187980042742" y="3" transform="rotate(180 168.59187980042742 0)" font-family="sans-serif">PUBLISH</text></g><g class="relationship" transform="translate(347.4537303146794 -234.06359294831572) rotate(495.2302486276585)"><path class="outline" fill="#A5ABB6" stroke="none" d="M 25 0.5 L 122.62639081610118 0.5 L 122.62639081610118 -0.5 L 25 -0.5 Z M 162.86076581610118 0.5 L 260.48715663220236 0.5 L 260.48715663220236 3.5 L 267.48715663220236 0 L 260.48715663220236 -3.5 L 260.48715663220236 -0.5 L 162.86076581610118 -0.5 Z"/><text text-anchor="middle" pointer-events="none" font-size="8px" fill="#000000" x="142.74357831610118" y="3" transform="rotate(180 142.74357831610118 0)" font-family="sans-serif">PUBLISH</text></g><g class="relationship" transform="translate(-19.30606035684508 -7.5751001266399385) rotate(512.9876205020166)"><path class="outline" fill="#A5ABB6" stroke="none" d="M 24.018736134675446,6.953439040707552 L 24.277555179777966,5.987513214418485 A 623.0817349463098 623.0817349463098 0 0 0 168.0231403715674,26.972148117337383 L 167.99502233586645,27.97175272720483 A 624.0817349463098 624.0817349463098 0 0 1 24.018736134675446,6.953439040707552 Z M 197.12475976733438,28.11103114398975 L 197.10620164540995,27.11120336076374 A 623.0817349463098 623.0817349463098 0 0 0 341.04587832599157,7.5020819824750085 L 340.29716642465496,4.597012191782034 L 347.9491598211646,6.239265844471755 L 342.044160861107,11.375508370065642 L 341.2954489597704,8.470438579372667 A 624.0817349463098 624.0817349463098 0 0 1 197.12475976733438,28.11103114398975"/><text text-anchor="middle" pointer-events="none" font-size="8px" fill="#000000" x="182.56146893855387" y="30.71138077010778" transform="rotate(180 182.56146893855387 27.71138077010778)" font-family="sans-serif">FIRST</text></g><g class="relationship" transform="translate(9.94993542467472 -166.58286378935725) rotate(497.72437906759455)"><path class="outline" fill="#A5ABB6" stroke="none" d="M 24.018736134675446,-6.953439040707552 L 24.277555179777966,-5.987513214418485 A 846.669939945957 846.669939945957 0 0 1 225.7644469417134,-34.65315648818171 L 225.74360362039153,-35.65293924256207 A 847.669939945957 847.669939945957 0 0 0 24.018736134675446,-6.953439040707552 Z M 254.8685305984114,-35.75966706408508 L 254.85501511378123,-34.75975840241881 A 846.669939945957 846.669939945957 0 0 1 456.54658238522325,-7.571556038638835 L 455.79138353461127,-4.668165831306312 L 463.4470260107678,-6.293323755099712 L 457.5535141860392,-11.442742981748868 L 456.7983153354272,-8.539352774416344 A 847.669939945957 847.669939945957 0 0 0 254.8685305984114,-35.75966706408508"/><text text-anchor="middle" pointer-events="none" font-size="8px" fill="#000000" x="240.30744092200501" y="-32.33140379541567" transform="rotate(180 240.30744092200501 -35.33140379541567)" font-family="sans-serif">FIRST</text></g><g class="relationship" transform="translate(9.94993542467472 -166.58286378935725) rotate(482.83950318765943)"><path class="outline" fill="#A5ABB6" stroke="none" d="M 24.018736134675446,6.953439040707552 L 24.277555179777966,5.987513214418485 A 1117.7178441699612 1117.7178441699612 0 0 0 295.8254226605994,43.93205408867357 L 295.80955210996456,44.93192814355393 A 1118.7178441699612 1118.7178441699612 0 0 1 24.018736134675446,6.953439040707552 Z M 324.93100208181295,45.01507736331018 L 324.92084153790177,44.01512898296892 A 1117.7178441699612 1117.7178441699612 0 0 0 596.6809625259764,7.62187196897227 L 595.9210657138226,4.719707804959766 L 603.5793283773646,6.332473434615341 L 597.6941582755148,11.491424187655609 L 596.934261463361,8.589260023643105 A 1118.7178441699612 1118.7178441699612 0 0 1 324.93100208181295,45.01507736331018"/><text text-anchor="middle" pointer-events="none" font-size="8px" fill="#000000" x="310.3714341477861" y="47.568267093481836" transform="rotate(180 310.3714341477861 44.568267093481836)" font-family="sans-serif">FIRST</text></g><g class="relationship" transform="translate(-19.30606035684508 -7.5751001266399385) rotate(490.1837424428179)"><path class="outline" fill="#A5ABB6" stroke="none" d="M 24.018736134675446,6.953439040707552 L 24.277555179777966,5.987513214418485 A 836.2514967244498 836.2514967244498 0 0 0 223.0725341419215,34.295961211348754 L 223.0514366192806,35.29573863384758 A 837.2514967244498 837.2514967244498 0 0 1 24.018736134675446,6.953439040707552 Z M 252.17653726734096,35.40364211601434 L 252.16284822852214,34.40373581529593 A 836.2514967244498 836.2514967244498 0 0 0 451.16212301607914,7.569047022984954 L 450.40715843372743,4.665595890385252 L 458.0626697558704,6.291371519597556 L 452.16874245921474,11.440315199784557 L 451.41377787686304,8.536864067184855 A 837.2514967244498 837.2514967244498 0 0 1 252.17653726734096,35.40364211601434"/><text text-anchor="middle" pointer-events="none" font-size="8px" fill="#000000" x="237.61537010688966" y="37.97634951846908" transform="rotate(180 237.61537010688966 34.97634951846908)" font-family="sans-serif">FIRST</text></g><g class="relationship" transform="translate(-19.30606035684508 -7.5751001266399385) rotate(211.371288410337)"><path class="outline" fill="#A5ABB6" stroke="none" d="M 24.018736134675446,6.953439040707552 L 24.277555179777966,5.987513214418485 A 517.2904824205267 517.2904824205267 0 0 0 134.15136011988454,23.056209065559187 L 134.10494360039198,24.055131238062245 A 518.2904824205267 518.2904824205267 0 0 1 24.018736134675446,6.953439040707552 Z M 176.43413828540247,24.291576594374874 L 176.398884011931,23.29219821948277 A 517.2904824205267 517.2904824205267 0 0 0 286.45651367922767,7.452010654575143 L 285.71247719977174,4.545739896844751 L 293.36181819384126,6.200303995466319 L 287.4485623185023,11.327038331549 L 286.70452583904637,8.420767573818607 A 518.2904824205267 518.2904824205267 0 0 1 176.43413828540247,24.291576594374874"/><text text-anchor="middle" pointer-events="none" font-size="8px" fill="#000000" x="155.26991895426306" y="27.10568112726139" transform="rotate(180 155.26991895426306 24.10568112726139)" font-family="sans-serif">TAG_AUT</text></g><g class="relationship" transform="translate(-19.30606035684508 -7.5751001266399385) rotate(216.35584503000047)"><path class="outline" fill="#A5ABB6" stroke="none" d="M 25 0.5 L 184.34403653989386 0.5 L 184.34403653989386 -0.5 L 25 -0.5 Z M 226.64481778989386 0.5 L 385.9888543297877 0.5 L 385.9888543297877 3.5 L 392.9888543297877 0 L 385.9888543297877 -3.5 L 385.9888543297877 -0.5 L 226.64481778989386 -0.5 Z"/><text text-anchor="middle" pointer-events="none" font-size="8px" fill="#000000" x="205.49442716489386" y="3" transform="rotate(180 205.49442716489386 0)" font-family="sans-serif">TAG_AUT</text></g><g class="relationship" transform="translate(9.94993542467472 -166.58286378935725) rotate(193.63827833314258)"><path class="outline" fill="#A5ABB6" stroke="none" d="M 25 0.5 L 163.5994019829288 0.5 L 163.5994019829288 -0.5 L 25 -0.5 Z M 205.9001832329288 0.5 L 344.4995852158576 0.5 L 344.4995852158576 3.5 L 351.4995852158576 0 L 344.4995852158576 -3.5 L 344.4995852158576 -0.5 L 205.9001832329288 -0.5 Z"/><text text-anchor="middle" pointer-events="none" font-size="8px" fill="#000000" x="184.7497926079288" y="3" transform="rotate(180 184.7497926079288 0)" font-family="sans-serif">TAG_AUT</text></g><g class="relationship" transform="translate(9.94993542467472 -166.58286378935725) rotate(181.20501530045004)"><path class="outline" fill="#A5ABB6" stroke="none" d="M 24.018736134675446,6.953439040707552 L 24.277555179777966,5.987513214418485 A 484.10970398997824 484.10970398997824 0 0 0 125.6009237273213,21.88919638189884 L 125.55140304519819,22.887969480276126 A 485.10970398997824 485.10970398997824 0 0 1 24.018736134675446,6.953439040707552 Z M 167.88165074584683,23.13758409187966 L 167.84391230420374,22.138296440588817 A 484.10970398997824 484.10970398997824 0 0 0 269.34776729990494,7.432652544728316 L 268.605538421896,4.525919620524656 L 276.2538489360483,6.185240650074689 L 270.3374058039169,11.30829644366653 L 269.59517692590794,8.401563519462869 A 485.10970398997824 485.10970398997824 0 0 1 167.88165074584683,23.13758409187966"/><text text-anchor="middle" pointer-events="none" font-size="8px" fill="#000000" x="146.71675127490357" y="25.97472598961815" transform="rotate(180 146.71675127490357 22.97472598961815)" font-family="sans-serif">TAG_AUT</text></g><g class="relationship" transform="translate(254.48668466615678 260.3640865410657) rotate(190.87533874955778)"><path class="outline" fill="#A5ABB6" stroke="none" d="M 25 0.5 L 87.76361620107757 0.5 L 87.76361620107757 -0.5 L 25 -0.5 Z M 132.29095995107758 0.5 L 195.05457615215514 0.5 L 195.05457615215514 3.5 L 202.05457615215514 0 L 195.05457615215514 -3.5 L 195.05457615215514 -0.5 L 132.29095995107758 -0.5 Z"/><text text-anchor="middle" pointer-events="none" font-size="8px" fill="#000000" x="110.02728807607757" y="3" transform="rotate(180 110.02728807607757 0)" font-family="sans-serif">SUPPORT</text></g><g class="relationship" transform="translate(254.48668466615678 260.3640865410657) rotate(197.2827732268405)"><path class="outline" fill="#A5ABB6" stroke="none" d="M 25 0.5 L 121.32372788495422 0.5 L 121.32372788495422 -0.5 L 25 -0.5 Z M 165.85107163495422 0.5 L 262.17479951990845 0.5 L 262.17479951990845 3.5 L 269.17479951990845 0 L 262.17479951990845 -3.5 L 262.17479951990845 -0.5 L 165.85107163495422 -0.5 Z"/><text text-anchor="middle" pointer-events="none" font-size="8px" fill="#000000" x="143.58739975995422" y="3" transform="rotate(180 143.58739975995422 0)" font-family="sans-serif">SUPPORT</text></g><g class="relationship" transform="translate(-330.47872563122985 360.8600276901649) rotate(438.9078745776734)"><path class="outline" fill="#A5ABB6" stroke="none" d="M 6.953439040707552 24.018736134675446 L 17.306200844808384 62.65576918623819 A 17.916697508022974 17.916697508022974 0 1 1 -17.306200844808384 62.65576918623819 L -8.765172356425198 30.780216918698923 L -4.901469051268926 31.815493099109005 L -6.4704761275630185 24.148145657226706 L -11.662949835292403 30.00375978339136 L -7.79924653013613 31.039035963801442 L -16.340275018519314 62.91458823134071 A 16.916697508022974 16.916697508022974 0 1 0 16.340275018519314 62.91458823134071 L 5.987513214418485 24.277555179777966 Z"/><text text-anchor="middle" pointer-events="none" font-size="8px" fill="#000000" x="0" y="94.20964923467838" font-family="sans-serif">COLAST</text></g><g class="relationship" transform="translate(-350.8648200531775 161.45277173329112) rotate(444.1627340591403)"><path class="outline" fill="#A5ABB6" stroke="none" d="M 24.018736134675446,-6.953439040707552 L 24.277555179777966,-5.987513214418485 A 289.5864027964388 289.5864027964388 0 0 1 77.74468851775522,-15.056946315218681 L 77.67050222067424,-16.054190715215668 A 290.5864027964388 290.5864027964388 0 0 0 24.018736134675446,-6.953439040707552 Z M 115.71514421830578,-16.386835751166586 L 115.65840683268341,-15.388446614069835 A 289.5864027964388 289.5864027964388 0 0 1 169.2759515835298,-7.255313205480381 L 168.55028298016092,-4.344401822754234 L 176.18902291045228,-6.047238361407344 L 170.24350972135497,-11.136528382448578 L 169.51784111798608,-8.22561699972243 A 290.5864027964388 290.5864027964388 0 0 0 115.71514421830578,-16.386835751166586"/><text text-anchor="middle" pointer-events="none" font-size="8px" fill="#000000" x="96.69174488230436" y="-13.343842751886939" font-family="sans-serif">COLAST</text></g><g class="relationship" transform="translate(-330.47872563122985 360.8600276901649) rotate(264.1627340591403)"><path class="outline" fill="#A5ABB6" stroke="none" d="M 17.324116139070416,18.03122292025696 L 18.031222920256962,17.324116139070412 A 114.82962781055299 114.82962781055299 0 0 0 77.66854395867574,48.914859797542704 L 77.4807920005912,49.89707627176588 A 115.82962781055299 115.82962781055299 0 0 1 17.324116139070416,18.03122292025696 Z M 115.46984410833662,50.81255602857023 L 115.32962253472789,49.82243587914658 A 114.82962781055299 114.82962781055299 0 0 0 176.41941274278378,21.141036368828846 L 174.40273683461376,18.919996458920288 L 181.93795185059875,16.805632568083553 L 179.10831395367714,24.102422915373587 L 177.09163804550712,21.88138300546503 A 115.82962781055299 115.82962781055299 0 0 1 115.46984410833662,50.81255602857023"/><text text-anchor="middle" pointer-events="none" font-size="8px" fill="#000000" x="96.44956527966515" y="54.42346184820521" transform="rotate(180 96.44956527966515 51.42346184820521)" font-family="sans-serif">COLAST</text></g><g class="relationship" transform="translate(-350.8648200531775 161.45277173329112) rotate(509.8704973981098)"><path class="outline" fill="#A5ABB6" stroke="none" d="M 6.953439040707552 24.018736134675446 L 17.306200844808384 62.65576918623819 A 17.916697508022974 17.916697508022974 0 1 1 -17.306200844808384 62.65576918623819 L -8.765172356425198 30.780216918698923 L -4.901469051268926 31.815493099109005 L -6.4704761275630185 24.148145657226706 L -11.662949835292403 30.00375978339136 L -7.79924653013613 31.039035963801442 L -16.340275018519314 62.91458823134071 A 16.916697508022974 16.916697508022974 0 1 0 16.340275018519314 62.91458823134071 L 5.987513214418485 24.277555179777966 Z"/><text text-anchor="middle" pointer-events="none" font-size="8px" fill="#000000" x="0" y="94.20964923467838" transform="rotate(180 0 91.20964923467838)" font-family="sans-serif">COLAST</text></g><g class="relationship" transform="translate(-19.30606035684508 -7.5751001266399385) rotate(512.9876205020166)"><path class="outline" fill="#A5ABB6" stroke="none" d="M 24.018736134675446,-6.953439040707552 L 24.277555179777966,-5.987513214418485 A 623.0817349463098 623.0817349463098 0 0 1 169.57211808325363,-27.013792026913848 L 169.5464860419653,-28.013463472169406 A 624.0817349463098 624.0817349463098 0 0 0 24.018736134675446,-6.953439040707552 Z M 195.57296814031355,-28.137904251275813 L 195.55689653824723,-27.13803340781294 A 623.0817349463098 623.0817349463098 0 0 1 341.04587832599157,-7.5020819824750085 L 340.29716642465496,-4.597012191782034 L 347.9491598211646,-6.239265844471755 L 342.044160861107,-11.375508370065642 L 341.2954489597704,-8.470438579372667 A 624.0817349463098 624.0817349463098 0 0 0 195.57296814031355,-28.137904251275813"/><text text-anchor="middle" pointer-events="none" font-size="8px" fill="#000000" x="182.56146893855393" y="-24.71138077010778" transform="rotate(180 182.56146893855393 -27.71138077010778)" font-family="sans-serif">LAST</text></g><g class="relationship" transform="translate(9.94993542467472 -166.58286378935725) rotate(482.83950318765943)"><path class="outline" fill="#A5ABB6" stroke="none" d="M 24.018736134675446,-6.953439040707552 L 24.277555179777966,-5.987513214418485 A 1117.7178441699612 1117.7178441699612 0 0 1 297.375331829912,-43.95558010741297 L 297.36084795228896,-44.95547521055573 A 1118.7178441699612 1118.7178441699612 0 0 0 24.018736134675446,-6.953439040707552 Z M 323.3795970683824,-45.02976542241436 L 323.37082329506893,-44.02980391270421 A 1117.7178441699612 1117.7178441699612 0 0 1 596.6809625259764,-7.62187196897227 L 595.9210657138226,-4.719707804959766 L 603.5793283773646,-6.332473434615341 L 597.6941582755148,-11.491424187655609 L 596.934261463361,-8.589260023643105 A 1118.7178441699612 1118.7178441699612 0 0 0 323.3795970683824,-45.02976542241436"/><text text-anchor="middle" pointer-events="none" font-size="8px" fill="#000000" x="310.37143414778603" y="-41.568267093481836" transform="rotate(180 310.37143414778603 -44.568267093481836)" font-family="sans-serif">LAST</text></g><g class="relationship" transform="translate(9.94993542467472 -166.58286378935725) rotate(497.72437906759455)"><path class="outline" fill="#A5ABB6" stroke="none" d="M 24.018736134675446,6.953439040707552 L 24.277555179777966,5.987513214418485 A 846.669939945957 846.669939945957 0 0 0 227.31400492034174,34.68404258491819 L 227.2949917785332,35.6838618187993 A 847.669939945957 847.669939945957 0 0 1 24.018736134675446,6.953439040707552 Z M 253.3169574776473,35.77921888915023 L 253.30527239073166,34.77928716210897 A 846.669939945957 846.669939945957 0 0 0 456.54658238522325,7.571556038638835 L 455.79138353461127,4.668165831306312 L 463.4470260107678,6.293323755099712 L 457.5535141860392,11.442742981748868 L 456.7983153354272,8.539352774416344 A 847.669939945957 847.669939945957 0 0 1 253.3169574776473,35.77921888915023"/><text text-anchor="middle" pointer-events="none" font-size="8px" fill="#000000" x="240.30744092200538" y="38.33140379541567" transform="rotate(180 240.30744092200538 35.33140379541567)" font-family="sans-serif">LAST</text></g><g class="relationship" transform="translate(-19.30606035684508 -7.5751001266399385) rotate(490.1837424428179)"><path class="outline" fill="#A5ABB6" stroke="none" d="M 24.018736134675446,-6.953439040707552 L 24.277555179777966,-5.987513214418485 A 836.2514967244498 836.2514967244498 0 0 1 224.62207317461608,-34.327223404590654 L 224.6028286101328,-35.327038210811224 A 837.2514967244498 837.2514967244498 0 0 0 24.018736134675446,-6.953439040707552 Z M 250.62495594803588,-35.423445711237605 L 250.6131200935056,-34.42351575741702 A 836.2514967244498 836.2514967244498 0 0 1 451.16212301607914,-7.569047022984954 L 450.40715843372743,-4.665595890385252 L 458.0626697558704,-6.291371519597556 L 452.16874245921474,-11.440315199784557 L 451.41377787686304,-8.536864067184855 A 837.2514967244498 837.2514967244498 0 0 0 250.62495594803588,-35.423445711237605"/><text text-anchor="middle" pointer-events="none" font-size="8px" fill="#000000" x="237.61537010688934" y="-31.97634951846908" transform="rotate(180 237.61537010688934 -34.97634951846908)" font-family="sans-serif">LAST</text></g><g class="relationship" transform="translate(31.51000593199975 217.52507053556735) rotate(266.787345253892)"><path class="outline" fill="#A5ABB6" stroke="none" d="M 25 0.5 L 165.85431909639223 0.5 L 165.85431909639223 -0.5 L 25 -0.5 Z M 211.85822534639223 0.5 L 352.71254444278446 0.5 L 352.71254444278446 3.5 L 359.71254444278446 0 L 352.71254444278446 -3.5 L 352.71254444278446 -0.5 L 211.85822534639223 -0.5 Z"/><text text-anchor="middle" pointer-events="none" font-size="8px" fill="#000000" x="188.85627222139223" y="3" transform="rotate(180 188.85627222139223 0)" font-family="sans-serif">PRODUCE</text></g><g class="relationship" transform="translate(-26.406171558914906 172.96834297022843) rotate(272.25207227959424)"><path class="outline" fill="#A5ABB6" stroke="none" d="M 25 0.5 L 63.83954678555315 0.5 L 63.83954678555315 -0.5 L 25 -0.5 Z M 109.84345303555315 0.5 L 148.6829998211063 0.5 L 148.6829998211063 3.5 L 155.6829998211063 0 L 148.6829998211063 -3.5 L 148.6829998211063 -0.5 L 109.84345303555315 -0.5 Z"/><text text-anchor="middle" pointer-events="none" font-size="8px" fill="#000000" x="86.84149991055315" y="3" font-family="sans-serif">PRODUCE</text></g><g class="relationship" transform="translate(-26.406171558914906 172.96834297022843) rotate(276.11143644125605)"><path class="outline" fill="#A5ABB6" stroke="none" d="M 25 0.5 L 144.24404867803864 0.5 L 144.24404867803864 -0.5 L 25 -0.5 Z M 190.24795492803864 0.5 L 309.4920036060773 0.5 L 309.4920036060773 3.5 L 316.4920036060773 0 L 309.4920036060773 -3.5 L 309.4920036060773 -0.5 L 190.24795492803864 -0.5 Z"/><text text-anchor="middle" pointer-events="none" font-size="8px" fill="#000000" x="167.24600180303864" y="3" font-family="sans-serif">PRODUCE</text></g><g class="relationship" transform="translate(31.51000593199975 217.52507053556735) rotate(257.27879386138125)"><path class="outline" fill="#A5ABB6" stroke="none" d="M 25 0.5 L 88.88041058933366 0.5 L 88.88041058933366 -0.5 L 25 -0.5 Z M 134.88431683933368 0.5 L 198.76472742866733 0.5 L 198.76472742866733 3.5 L 205.76472742866733 0 L 198.76472742866733 -3.5 L 198.76472742866733 -0.5 L 134.88431683933368 -0.5 Z"/><text text-anchor="middle" pointer-events="none" font-size="8px" fill="#000000" x="111.88236371433366" y="3" transform="rotate(180 111.88236371433366 0)" font-family="sans-serif">PRODUCE</text></g><g class="relationship" transform="translate(31.51000593199975 217.52507053556735) rotate(293.79439816436957)"><path class="outline" fill="#A5ABB6" stroke="none" d="M 25 0.5 L 107.70681233059304 0.5 L 107.70681233059304 -0.5 L 25 -0.5 Z M 153.71071858059304 0.5 L 236.41753091118608 0.5 L 236.41753091118608 3.5 L 243.41753091118608 0 L 236.41753091118608 -3.5 L 236.41753091118608 -0.5 L 153.71071858059304 -0.5 Z"/><text text-anchor="middle" pointer-events="none" font-size="8px" fill="#000000" x="130.70876545559304" y="3" font-family="sans-serif">PRODUCE</text></g><g class="relationship" transform="translate(-26.406171558914906 172.96834297022843) rotate(309.5816959273765)"><path class="outline" fill="#A5ABB6" stroke="none" d="M 25 0.5 L 103.92537529840664 0.5 L 103.92537529840664 -0.5 L 25 -0.5 Z M 149.92928154840664 0.5 L 228.85465684681327 0.5 L 228.85465684681327 3.5 L 235.85465684681327 0 L 228.85465684681327 -3.5 L 228.85465684681327 -0.5 L 149.92928154840664 -0.5 Z"/><text text-anchor="middle" pointer-events="none" font-size="8px" fill="#000000" x="126.92732842340664" y="3" font-family="sans-serif">PRODUCE</text></g><g class="relationship" transform="translate(9.94993542467472 -166.58286378935725) rotate(193.63827833314258)"><path class="outline" fill="#A5ABB6" stroke="none" d="M 21.40063509461097,12.933012701892217 L 21.90063509461097,12.06698729810778 A 331.6385529029394 331.6385529029394 0 0 0 167.9435871371185,55.90795087308709 L 167.88395497362046,56.90617129217128 A 332.6385529029394 332.6385529029394 0 0 1 21.40063509461097,12.933012701892217 Z M 201.47736763000802,57.21351236923647 L 201.43600905637345,56.21436800109592 A 331.6385529029394 331.6385529029394 0 0 0 348.2566367499746,15.05276924534156 L 346.80442267113483,12.427683671646928 L 354.62387210173534,12.10178399033129 L 350.1929221884276,18.552883343601067 L 348.74070810958784,15.927797769906435 A 332.6385529029394 332.6385529029394 0 0 1 201.47736763000802,57.21351236923647"/><text text-anchor="middle" pointer-events="none" font-size="8px" fill="#000000" x="184.6813530708832" y="59.98422914652036" transform="rotate(180 184.6813530708832 56.98422914652036)" font-family="sans-serif">ABOUT</text></g><g class="relationship" transform="translate(-19.30606035684508 -7.5751001266399385) rotate(233.44727900268327)"><path class="outline" fill="#A5ABB6" stroke="none" d="M 25 0.5 L 148.79284327240686 0.5 L 148.79284327240686 -0.5 L 25 -0.5 Z M 182.35143702240686 0.5 L 306.1442802948137 0.5 L 306.1442802948137 3.5 L 313.1442802948137 0 L 306.1442802948137 -3.5 L 306.1442802948137 -0.5 L 182.35143702240686 -0.5 Z"/><text text-anchor="middle" pointer-events="none" font-size="8px" fill="#000000" x="165.57214014740686" y="3" transform="rotate(180 165.57214014740686 0)" font-family="sans-serif">ABOUT</text></g><g class="relationship" transform="translate(9.94993542467472 -166.58286378935725) rotate(206.02709550100843)"><path class="outline" fill="#A5ABB6" stroke="none" d="M 25 0.5 L 108.05665885735297 0.5 L 108.05665885735297 -0.5 L 25 -0.5 Z M 141.61525260735297 0.5 L 224.67191146470594 0.5 L 224.67191146470594 3.5 L 231.67191146470594 0 L 224.67191146470594 -3.5 L 224.67191146470594 -0.5 L 141.61525260735297 -0.5 Z"/><text text-anchor="middle" pointer-events="none" font-size="8px" fill="#000000" x="124.83595573235297" y="3" transform="rotate(180 124.83595573235297 0)" font-family="sans-serif">ABOUT</text></g><g class="relationship" transform="translate(-19.30606035684508 -7.5751001266399385) rotate(216.35584503000047)"><path class="outline" fill="#A5ABB6" stroke="none" d="M 21.40063509461097,-12.933012701892217 L 21.90063509461097,-12.06698729810778 A 373.23301323306885 373.23301323306885 0 0 1 188.689139419221,-61.54367613637919 L 188.6360144233366,-62.54226400673025 A 374.23301323306885 374.23301323306885 0 0 0 21.40063509461097,-12.933012701892217 Z M 222.2270725743919,-62.81951531521264 L 222.19043782978505,-61.820186592775656 A 373.23301323306885 373.23301323306885 0 0 1 389.772897308532,-15.103303260367275 L 388.31598635073146,-12.480821523340147 L 396.134839854562,-12.140924648337293 L 391.715445252266,-18.599945576403446 L 390.2585342944655,-15.977463839376318 A 374.23301323306885 374.23301323306885 0 0 0 222.2270725743919,-62.81951531521264"/><text text-anchor="middle" pointer-events="none" font-size="8px" fill="#000000" x="205.432557795284" y="-59.558000105627855" transform="rotate(180 205.432557795284 -62.558000105627855)" font-family="sans-serif">ABOUT</text></g></g><g class="layer nodes"><g class="node" transform="translate(-355.9337504871892,-255.3582322834466)"><circle class="outline" cx="0" cy="0" r="25" fill="#A5ABB6" stroke="#9AA1AC" stroke-width="2px"/><text text-anchor="middle" pointer-events="none" font-family="sans-serif" dy="1.5625" font-size="25" fill="#FFFFFF"/><text text-anchor="middle" pointer-events="none" y="5" font-size="10px" fill="#FFFFFF" font-family="sans-serif"> Concept</text></g><g class="node" transform="translate(31.51000593199975,217.52507053556735)"><circle class="outline" cx="0" cy="0" r="25" fill="#A5ABB6" stroke="#9AA1AC" stroke-width="2px"/><text text-anchor="middle" pointer-events="none" font-family="sans-serif" dy="1.5625" font-size="25" fill="#FFFFFF"/><text text-anchor="middle" pointer-events="none" y="5" font-size="10px" fill="#FFFFFF" font-family="sans-serif"> Task</text></g><g class="node" transform="translate(-290.46023641717596,-172.90186737943463)"><circle class="outline" cx="0" cy="0" r="25" fill="#A5ABB6" stroke="#9AA1AC" stroke-width="2px"/><text text-anchor="middle" pointer-events="none" font-family="sans-serif" dy="1.5625" font-size="25" fill="#FFFFFF"/><text text-anchor="middle" pointer-events="none" y="5" font-size="10px" fill="#FFFFFF" font-family="sans-serif"> Keyword</text></g><g class="node" transform="translate(-26.406171558914906,172.96834297022843)"><circle class="outline" cx="0" cy="0" r="25" fill="#A5ABB6" stroke="#9AA1AC" stroke-width="2px"/><text text-anchor="middle" pointer-events="none" font-family="sans-serif" dy="1.5625" font-size="25" fill="#FFFFFF"/><text text-anchor="middle" pointer-events="none" y="5" font-size="10px" fill="#FFFFFF" font-family="sans-serif"> DupTask</text></g><g class="node" transform="translate(9.94993542467472,-166.58286378935725)"><circle class="outline" cx="0" cy="0" r="25" fill="#FFD86E" stroke="#EDBA39" stroke-width="2px"/><text text-anchor="middle" pointer-events="none" font-family="sans-serif" dy="1.5625" font-size="25" fill="#604A0E"/><text text-anchor="middle" pointer-events="none" y="5" font-size="10px" fill="#604A0E" font-family="sans-serif"> PaperSrc</text></g><g class="node" transform="translate(254.48668466615678,260.3640865410657)"><circle class="outline" cx="0" cy="0" r="25" fill="#A5ABB6" stroke="#9AA1AC" stroke-width="2px"/><text text-anchor="middle" pointer-events="none" font-family="sans-serif" dy="1.5625" font-size="25" fill="#FFFFFF"/><text text-anchor="middle" pointer-events="none" y="5" font-size="10px" fill="#FFFFFF" font-family="sans-serif"> Affil</text></g><g class="node" transform="translate(448.7361340946304,-217.80024375705648)"><circle class="outline" cx="0" cy="0" r="25" fill="#A5ABB6" stroke="#9AA1AC" stroke-width="2px"/><text text-anchor="middle" pointer-events="none" font-family="sans-serif" dy="1.5625" font-size="25" fill="#FFFFFF"/><text text-anchor="middle" pointer-events="none" y="5" font-size="10px" fill="#FFFFFF" font-family="sans-serif"> Journal</text></g><g class="node" transform="translate(423.1481607947156,113.87952301938867)"><circle class="outline" cx="0" cy="0" r="25" fill="#A5ABB6" stroke="#9AA1AC" stroke-width="2px"/><text text-anchor="middle" pointer-events="none" font-family="sans-serif" dy="1.5625" font-size="25" fill="#FFFFFF"/><text text-anchor="middle" pointer-events="none" y="5" font-size="10px" fill="#FFFFFF" font-family="sans-serif"> Printer</text></g><g class="node selected" transform="translate(-206.6224780329202,357.2929511597264)"><circle class="outline" cx="0" cy="0" r="25" fill="#A5ABB6" stroke="#9AA1AC" stroke-width="2px"/><text text-anchor="middle" pointer-events="none" font-family="sans-serif" dy="1.5625" font-size="25" fill="#FFFFFF"/><text text-anchor="middle" pointer-events="none" y="5" font-size="10px" fill="#FFFFFF" font-family="sans-serif"> AuthorRef</text></g><g class="node" transform="translate(347.4537303146794,-234.06359294831572)"><circle class="outline" cx="0" cy="0" r="25" fill="#A5ABB6" stroke="#9AA1AC" stroke-width="2px"/><text text-anchor="middle" pointer-events="none" font-family="sans-serif" dy="1.5625" font-size="25" fill="#FFFFFF"/><text text-anchor="middle" pointer-events="none" y="5" font-size="10px" fill="#FFFFFF" font-family="sans-serif"> JrnRef</text></g><g class="node" transform="translate(-330.47872563122985,360.8600276901649)"><circle class="outline" cx="0" cy="0" r="25" fill="#6DCE9E" stroke="#60B58B" stroke-width="2px"/><text text-anchor="middle" pointer-events="none" font-family="sans-serif" dy="1.5625" font-size="25" fill="#FFFFFF"/><text text-anchor="middle" pointer-events="none" y="5" font-size="10px" fill="#FFFFFF" font-family="sans-serif"> Author</text></g><g class="node" transform="translate(-19.30606035684508,-7.5751001266399385)"><circle class="outline" cx="0" cy="0" r="25" fill="#FB95AF" stroke="#E0849B" stroke-width="2px"/><text text-anchor="middle" pointer-events="none" font-family="sans-serif" dy="1.5625" font-size="25" fill="#FFFFFF"/><text text-anchor="middle" pointer-events="none" y="5" font-size="10px" fill="#FFFFFF" font-family="sans-serif"> </text></g><g class="node" transform="translate(139.80462590209498,-28.076733582379177)"><circle class="outline" cx="0" cy="0" r="25" fill="#A5ABB6" stroke="#9AA1AC" stroke-width="2px"/><text text-anchor="middle" pointer-events="none" font-family="sans-serif" dy="1.5625" font-size="25" fill="#FFFFFF"/><text text-anchor="middle" pointer-events="none" y="5" font-size="10px" fill="#FFFFFF" font-family="sans-serif"> PaperRef</text></g><g class="node" transform="translate(-220.6920144615715,-279.20950845045036)"><circle class="outline" cx="0" cy="0" r="25" fill="#A5ABB6" stroke="#9AA1AC" stroke-width="2px"/><text text-anchor="middle" pointer-events="none" font-family="sans-serif" dy="1.5625" font-size="25" fill="#FFFFFF"/><text text-anchor="middle" pointer-events="none" y="5" font-size="10px" fill="#FFFFFF" font-family="sans-serif"> Topic</text></g><g class="node" transform="translate(-350.8648200531775,161.45277173329112)"><circle class="outline" cx="0" cy="0" r="25" fill="#DE9BF9" stroke="#BF85D6" stroke-width="2px"/><text text-anchor="middle" pointer-events="none" font-family="sans-serif" dy="1.5625" font-size="25" fill="#FFFFFF"/><text text-anchor="middle" pointer-events="none" y="5" font-size="10px" fill="#FFFFFF" font-family="sans-serif"> AuthorSrc</text></g><g class="node" transform="translate(365.88346441689333,-140.30894495905235)"><circle class="outline" cx="0" cy="0" r="25" fill="#A5ABB6" stroke="#9AA1AC" stroke-width="2px"/><text text-anchor="middle" pointer-events="none" font-family="sans-serif" dy="1.5625" font-size="25" fill="#FFFFFF"/><text text-anchor="middle" pointer-events="none" y="5" font-size="10px" fill="#FFFFFF" font-family="sans-serif"> JrnSrc</text></g></g></svg>