<svg xmlns="http://www.w3.org/2000/svg" width="666.1571044921875" height="296.0789489746094" viewBox="-374.0423889160156 -38.51274871826172 666.1571044921875 296.0789489746094" style="background-color: #fff;"><title>Neo4j Graph Visualization</title><desc>Created using Neo4j (http://www.neo4j.com/)</desc><g class="layer relationships"><g class="relationship" transform="translate(-49.559250746216776 149.2847689226483) rotate(326.3633189857728)"><path class="outline" fill="#A5ABB6" stroke="none" d="M 8.894581878976458 31.263179831843463 L 19.247343683077286 69.90021288340618 A 19.926316451256394 19.926316451256394 0 1 1 -19.247343683077286 69.90021288340618 L -10.706315194694104 38.024660615866935 L -6.842611889537831 39.05993679627702 L -8.411618965831924 31.392589354394723 L -13.60409267356131 37.248203480559376 L -9.740389368405035 38.283479660969455 L -18.28141785678822 70.15903192850871 A 18.926316451256394 18.926316451256394 0 1 0 18.28141785678822 70.15903192850871 L 7.92865605268739 31.521998876945982 Z"/><text text-anchor="middle" pointer-events="none" font-size="8px" fill="#000000" x="0" y="103.98383953098741" font-family="sans-serif">SAME</text></g><g class="relationship" transform="translate(-275.0068479441085 204.9120972093778) rotate(436.1395948768096)"><path class="outline" fill="#A5ABB6" stroke="none" d="M 6.953439040707552 24.018736134675446 L 17.306200844808384 62.65576918623819 A 17.916697508022974 17.916697508022974 0 1 1 -17.306200844808384 62.65576918623819 L -8.765172356425198 30.780216918698923 L -4.901469051268926 31.815493099109005 L -6.4704761275630185 24.148145657226706 L -11.662949835292403 30.00375978339136 L -7.79924653013613 31.039035963801442 L -16.340275018519314 62.91458823134071 A 16.916697508022974 16.916697508022974 0 1 0 16.340275018519314 62.91458823134071 L 5.987513214418485 24.277555179777966 Z"/><text text-anchor="middle" pointer-events="none" font-size="8px" fill="#000000" x="0" y="94.20964923467838" font-family="sans-serif">SUBTOPI…</text></g><g class="relationship" transform="translate(-179.478185361246 -9.512750856898222) rotate(379.9250359728652)"><path class="outline" fill="#A5ABB6" stroke="none" d="M 25 0.5 L 47.63706982745302 0.5 L 47.63706982745302 -0.5 L 25 -0.5 Z M 73.18785107745302 0.5 L 95.82492090490604 0.5 L 95.82492090490604 3.5 L 102.82492090490604 0 L 95.82492090490604 -3.5 L 95.82492090490604 -0.5 L 73.18785107745302 -0.5 Z"/><text text-anchor="middle" pointer-events="none" font-size="8px" fill="#000000" x="60.41246045245302" y="3" font-family="sans-serif">OWN</text></g><g class="relationship" transform="translate(-49.559250746216776 149.2847689226483) rotate(381.2514569312912)"><path class="outline" fill="#A5ABB6" stroke="none" d="M 8.894581878976458 31.263179831843463 L 19.247343683077286 69.90021288340618 A 19.926316451256394 19.926316451256394 0 1 1 -19.247343683077286 69.90021288340618 L -10.706315194694104 38.024660615866935 L -6.842611889537831 39.05993679627702 L -8.411618965831924 31.392589354394723 L -13.60409267356131 37.248203480559376 L -9.740389368405035 38.283479660969455 L -18.28141785678822 70.15903192850871 A 18.926316451256394 18.926316451256394 0 1 0 18.28141785678822 70.15903192850871 L 7.92865605268739 31.521998876945982 Z"/><text text-anchor="middle" pointer-events="none" font-size="8px" fill="#000000" x="0" y="103.98383953098741" font-family="sans-serif">CITE</text></g><g class="relationship" transform="translate(198.2376495076195 155.66614790818397) rotate(237.41474054749568)"><path class="outline" fill="#A5ABB6" stroke="none" d="M 6.953439040707552 24.018736134675446 L 17.306200844808384 62.65576918623819 A 17.916697508022974 17.916697508022974 0 1 1 -17.306200844808384 62.65576918623819 L -8.765172356425198 30.780216918698923 L -4.901469051268926 31.815493099109005 L -6.4704761275630185 24.148145657226706 L -11.662949835292403 30.00375978339136 L -7.79924653013613 31.039035963801442 L -16.340275018519314 62.91458823134071 A 16.916697508022974 16.916697508022974 0 1 0 16.340275018519314 62.91458823134071 L 5.987513214418485 24.277555179777966 Z"/><text text-anchor="middle" pointer-events="none" font-size="8px" fill="#000000" x="0" y="94.20964923467838" transform="rotate(180 0 91.20964923467838)" font-family="sans-serif">COFIRST</text></g><g class="relationship" transform="translate(-49.559250746216776 149.2847689226483) rotate(195.91789521257766)"><path class="outline" fill="#A5ABB6" stroke="none" d="M 31.26317983184346,-8.894581878976458 L 31.52199887694598,-7.92865605268739 A 341.8321793892739 341.8321793892739 0 0 1 99.29498247149724,-18.948993079273635 L 99.23442733389352,-19.94715793304772 A 342.8321793892739 342.8321793892739 0 0 0 31.26317983184346,-8.894581878976458 Z M 141.1249190563067,-19.924511048683883 L 141.06328469642204,-18.92641225313224 A 341.8321793892739 341.8321793892739 0 0 1 208.82431302449328,-7.83280267783212 L 208.04472314458724,-4.935866430838051 L 215.71376258079712,-6.4965823325503615 L 209.86376619770135,-11.695384340490879 L 209.0841763177953,-8.798448093496809 A 342.8321793892739 342.8321793892739 0 0 0 141.1249190563067,-19.924511048683883"/><text text-anchor="middle" pointer-events="none" font-size="8px" fill="#000000" x="120.17974910943904" y="-17.076255086278024" transform="rotate(180 120.17974910943904 -20.076255086278024)" font-family="sans-serif">TAG_JRN</text></g><g class="relationship" transform="translate(198.2376495076195 155.66614790818397) rotate(220.38452030111637)"><path class="outline" fill="#A5ABB6" stroke="none" d="M 25 0.5 L 57.107845500050075 0.5 L 57.107845500050075 -0.5 L 25 -0.5 Z M 75.10784550005008 0.5 L 107.21569100010015 0.5 L 107.21569100010015 3.5 L 114.21569100010015 0 L 107.21569100010015 -3.5 L 107.21569100010015 -0.5 L 75.10784550005008 -0.5 Z"/><text text-anchor="middle" pointer-events="none" font-size="8px" fill="#000000" x="66.10784550005008" y="3" transform="rotate(180 66.10784550005008 0)" font-family="sans-serif">DO</text></g><g class="relationship" transform="translate(-59.30495306685833 34.04875329831461) rotate(445.16590340369845)"><path class="outline" fill="#A5ABB6" stroke="none" d="M 25 0.5 L 30.45650576386511 0.5 L 30.45650576386511 -0.5 L 25 -0.5 Z M 70.69088076386511 0.5 L 76.14738652773022 0.5 L 76.14738652773022 3.5 L 83.14738652773022 0 L 76.14738652773022 -3.5 L 76.14738652773022 -0.5 L 70.69088076386511 -0.5 Z"/><text text-anchor="middle" pointer-events="none" font-size="8px" fill="#000000" x="50.57369326386511" y="3" font-family="sans-serif">PUBLISH</text></g><g class="relationship" transform="translate(-49.559250746216776 149.2847689226483) rotate(361.47518104025437)"><path class="outline" fill="#A5ABB6" stroke="none" d="M 31.26317983184346,8.894581878976458 L 31.52199887694598,7.92865605268739 A 357.32525145784024 357.32525145784024 0 0 0 109.66099627039657,19.816215980742015 L 109.62085473849709,20.815409984635494 A 358.32525145784024 358.32525145784024 0 0 1 31.26317983184346,8.894581878976458 Z M 138.76286375143678,20.800166197052306 L 138.72167691227008,19.80101473492084 A 357.32525145784024 357.32525145784024 0 0 0 216.84819510741303,7.831714446235855 L 216.0687068220623,4.9347508612039395 L 223.73769152004596,6.495735711256126 L 217.88751282121402,11.694332559611743 L 217.10802453586328,8.797368974579827 A 358.32525145784024 358.32525145784024 0 0 1 138.76286375143678,20.800166197052306"/><text text-anchor="middle" pointer-events="none" font-size="8px" fill="#000000" x="124.19175273500902" y="23.60416978821854" font-family="sans-serif">FIRST</text></g><g class="relationship" transform="translate(-49.559250746216776 149.2847689226483) rotate(195.91789521257766)"><path class="outline" fill="#A5ABB6" stroke="none" d="M 31.26317983184346,8.894581878976458 L 31.52199887694598,7.92865605268739 A 341.8321793892739 341.8321793892739 0 0 0 99.0730638304167,18.93545762272663 L 99.0118594893311,19.933582879712105 A 342.8321793892739 342.8321793892739 0 0 1 31.26317983184346,8.894581878976458 Z M 141.34747209285223,19.910695353600943 L 141.2851885726789,18.9126368567608 A 341.8321793892739 341.8321793892739 0 0 0 208.82431302449328,7.83280267783212 L 208.04472314458724,4.935866430838051 L 215.71376258079712,6.4965823325503615 L 209.86376619770135,11.695384340490879 L 209.0841763177953,8.798448093496809 A 342.8321793892739 342.8321793892739 0 0 1 141.34747209285223,19.910695353600943"/><text text-anchor="middle" pointer-events="none" font-size="8px" fill="#000000" x="120.17974910943909" y="23.076255086278024" transform="rotate(180 120.17974910943909 20.076255086278024)" font-family="sans-serif">TAG_AUT</text></g><g class="relationship" transform="translate(204.65693288436592 -9.196719246374748) rotate(506.41992023187976)"><path class="outline" fill="#A5ABB6" stroke="none" d="M 25 0.5 L 41.73116900812232 0.5 L 41.73116900812232 -0.5 L 25 -0.5 Z M 86.25851275812232 0.5 L 102.98968176624464 0.5 L 102.98968176624464 3.5 L 109.98968176624464 0 L 102.98968176624464 -3.5 L 102.98968176624464 -0.5 L 86.25851275812232 -0.5 Z"/><text text-anchor="middle" pointer-events="none" font-size="8px" fill="#000000" x="63.99484088312232" y="3" transform="rotate(180 63.99484088312232 0)" font-family="sans-serif">SUPPORT</text></g><g class="relationship" transform="translate(198.2376495076195 155.66614790818397) rotate(344.444960793875)"><path class="outline" fill="#A5ABB6" stroke="none" d="M 6.953439040707552 24.018736134675446 L 17.306200844808384 62.65576918623819 A 17.916697508022974 17.916697508022974 0 1 1 -17.306200844808384 62.65576918623819 L -8.765172356425198 30.780216918698923 L -4.901469051268926 31.815493099109005 L -6.4704761275630185 24.148145657226706 L -11.662949835292403 30.00375978339136 L -7.79924653013613 31.039035963801442 L -16.340275018519314 62.91458823134071 A 16.916697508022974 16.916697508022974 0 1 0 16.340275018519314 62.91458823134071 L 5.987513214418485 24.277555179777966 Z"/><text text-anchor="middle" pointer-events="none" font-size="8px" fill="#000000" x="0" y="94.20964923467838" font-family="sans-serif">COLAST</text></g><g class="relationship" transform="translate(-49.559250746216776 149.2847689226483) rotate(361.47518104025437)"><path class="outline" fill="#A5ABB6" stroke="none" d="M 31.26317983184346,-8.894581878976458 L 31.52199887694598,-7.92865605268739 A 357.32525145784024 357.32525145784024 0 0 1 111.20849225173504,-19.87502647139246 L 111.17268149683781,-20.87438506060539 A 358.32525145784024 358.32525145784024 0 0 0 31.26317983184346,-8.894581878976458 Z M 137.21109954041455,-20.860764719142935 L 137.17424330369553,-19.86144414104257 A 357.32525145784024 357.32525145784024 0 0 1 216.84819510741303,-7.831714446235855 L 216.0687068220623,-4.9347508612039395 L 223.73769152004596,-6.495735711256126 L 217.88751282121402,-11.694332559611743 L 217.10802453586328,-8.797368974579827 A 358.32525145784024 358.32525145784024 0 0 0 137.21109954041455,-20.860764719142935"/><text text-anchor="middle" pointer-events="none" font-size="8px" fill="#000000" x="124.19175273500886" y="-17.60416978821854" font-family="sans-serif">LAST</text></g><g class="relationship" transform="translate(92.19519449287571 65.4663344101428) rotate(509.4044652951351)"><path class="outline" fill="#A5ABB6" stroke="none" d="M 25 0.5 L 52.08857867612764 0.5 L 52.08857867612764 -0.5 L 25 -0.5 Z M 98.09248492612764 0.5 L 125.18106360225528 0.5 L 125.18106360225528 3.5 L 132.18106360225528 0 L 125.18106360225528 -3.5 L 125.18106360225528 -0.5 L 98.09248492612764 -0.5 Z"/><text text-anchor="middle" pointer-events="none" font-size="8px" fill="#000000" x="75.09053180112764" y="3" transform="rotate(180 75.09053180112764 0)" font-family="sans-serif">PRODUCE</text></g><g class="relationship" transform="translate(-49.559250746216776 149.2847689226483) rotate(526.1395948768096)"><path class="outline" fill="#A5ABB6" stroke="none" d="M 32.5 0.5 L 99.57520210611442 0.5 L 99.57520210611442 -0.5 L 32.5 -0.5 Z M 133.13379585611443 0.5 L 200.20899796222884 0.5 L 200.20899796222884 3.5 L 207.20899796222884 0 L 200.20899796222884 -3.5 L 200.20899796222884 -0.5 L 133.13379585611443 -0.5 Z"/><text text-anchor="middle" pointer-events="none" font-size="8px" fill="#000000" x="116.35449898111442" y="3" transform="rotate(180 116.35449898111442 0)" font-family="sans-serif">ABOUT</text></g></g><g class="layer nodes"><g class="node" transform="translate(92.19519449287571,65.4663344101428)"><circle class="outline" cx="0" cy="0" r="25" fill="#A5ABB6" stroke="#9AA1AC" stroke-width="2px"/><text text-anchor="middle" pointer-events="none" font-family="sans-serif" dy="1.5625" font-size="25" fill="#FFFFFF"/><text text-anchor="middle" pointer-events="none" y="5" font-size="10px" fill="#FFFFFF" font-family="sans-serif"> Task</text></g><g class="node" transform="translate(-280.2170797998947,83.50226381983552)"><circle class="outline" cx="0" cy="0" r="25" fill="#6DCE9E" stroke="#60B58B" stroke-width="2px"/><text text-anchor="middle" pointer-events="none" font-family="sans-serif" dy="1.5625" font-size="25" fill="#FFFFFF"/><text text-anchor="middle" pointer-events="none" y="5" font-size="10px" fill="#FFFFFF" font-family="sans-serif"> Keyword</text></g><g class="node" transform="translate(204.65693288436592,-9.196719246374748)"><circle class="outline" cx="0" cy="0" r="25" fill="#FFD86E" stroke="#EDBA39" stroke-width="2px"/><text text-anchor="middle" pointer-events="none" font-family="sans-serif" dy="1.5625" font-size="25" fill="#604A0E"/><text text-anchor="middle" pointer-events="none" y="5" font-size="10px" fill="#604A0E" font-family="sans-serif"> Affil</text></g><g class="node" transform="translate(-59.30495306685833,34.04875329831461)"><circle class="outline" cx="0" cy="0" r="25" fill="#68BDF6" stroke="#5CA8DB" stroke-width="2px"/><text text-anchor="middle" pointer-events="none" font-family="sans-serif" dy="1.5625" font-size="25" fill="#FFFFFF"/><text text-anchor="middle" pointer-events="none" y="5" font-size="10px" fill="#FFFFFF" font-family="sans-serif"> Journal</text></g><g class="node" transform="translate(-179.478185361246,-9.512750856898222)"><circle class="outline" cx="0" cy="0" r="25" fill="#68BDF6" stroke="#5CA8DB" stroke-width="2px"/><text text-anchor="middle" pointer-events="none" font-family="sans-serif" dy="1.5625" font-size="25" fill="#FFFFFF"/><text text-anchor="middle" pointer-events="none" y="5" font-size="10px" fill="#FFFFFF" font-family="sans-serif"> Printer</text></g><g class="node" transform="translate(198.2376495076195,155.66614790818397)"><circle class="outline" cx="0" cy="0" r="25" fill="#FF756E" stroke="#E06760" stroke-width="2px"/><text text-anchor="middle" pointer-events="none" font-family="sans-serif" dy="1.5625" font-size="25" fill="#FFFFFF"/><text text-anchor="middle" pointer-events="none" y="5" font-size="10px" fill="#FFFFFF" font-family="sans-serif"> Author</text></g><g class="node" transform="translate(-49.559250746216776,149.2847689226483)"><circle class="outline" cx="0" cy="0" r="32.5" fill="#DE9BF9" stroke="#BF85D6" stroke-width="2px"/><text text-anchor="middle" pointer-events="none" font-family="sans-serif" dy="2.03125" font-size="32.5" fill="#FFFFFF"/><text text-anchor="middle" pointer-events="none" y="5" font-size="10px" fill="#FFFFFF" font-family="sans-serif"> Paper</text></g><g class="node" transform="translate(-275.0068479441085,204.9120972093778)"><circle class="outline" cx="0" cy="0" r="25" fill="#6DCE9E" stroke="#60B58B" stroke-width="2px"/><text text-anchor="middle" pointer-events="none" font-family="sans-serif" dy="1.5625" font-size="25" fill="#FFFFFF"/><text text-anchor="middle" pointer-events="none" y="5" font-size="10px" fill="#FFFFFF" font-family="sans-serif"> Topic</text></g></g></svg>
